<?xml version="1.0" encoding="utf-8"?>
<!-- Generator: Adobe Illustrator 17.1.0, SVG Export Plug-In . SVG Version: 6.00 Build 0)  -->
<!DOCTYPE svg PUBLIC "-//W3C//DTD SVG 1.1//EN" "http://www.w3.org/Graphics/SVG/1.1/DTD/svg11.dtd">
<svg version="1.1" id="Layer_1" xmlns="http://www.w3.org/2000/svg" xmlns:xlink="http://www.w3.org/1999/xlink" x="0px" y="0px"
	 viewBox="410.6 209.1 302.4 349.6" enable-background="new 410.6 209.1 302.4 349.6" xml:space="preserve">
<g>
	<path fill="#FFFFFF" d="M701.3,348.5l-56.8-135.6c-1.7-5.1-8.5-5.1-11,0l-21.2,51.7c-32.3-11.8-68.9-11.2-101.8,0.5l-21.1-51.4
		c-1.7-5.1-8.5-5.1-11,0l-55.9,134.8v0c-15.2,36.3-16.4,78.6,0,117.8c4.1,9.7,9.2,18.7,15,27.1c14.9,22.7,36.6,40.4,61.3,51.7
		c19.5,9.3,40.7,13.6,61.9,13.6c0.3,0,0.6,0,0.9,0c0.3,0,0.6,0,0.8,0c20.3,0,39.8-4.2,58.5-11.9
		C697.1,514.6,733.5,425.6,701.3,348.5z M639.4,262.9l39.8,95.8c13.6,30.5,13.6,65.3,0.8,97.5c-12.7,31.4-37.3,55.9-68.7,69.5
		c-16.1,5.9-32.2,9.3-49.2,9.3c-6.6,0-13.1-0.5-19.4-1.5c-9.4-10.8-17-23.2-22.9-36.7c-0.3-0.8-0.7-1.6-1-2.4l18.8-45
		c1.7-4.2-1.7-9.3-5.9-9.3h-61.9c-5.1,0-7.6,5.1-5.9,9.3c7,13.2,21.2,35.8,45.8,47.9c0.5,1.3,1.1,2.6,1.7,3.8
		c4.5,10.6,10.2,20.4,16.8,29.3c-37.1-10.2-68-36.7-83.8-73.4c-11.9-28.6-12.7-58.9-4.4-86.3l34.1,23.5c1.7,0.8,3.4-0.8,3.4-2.5
		l-11-27.1c-0.8-3.4-1.7-4.2-4.2-4.2l-19.2,1.5c12.1-31.3,36.4-57.9,70-71.8c15.3-6.8,31.4-10.2,49.2-10.2c14.4,0,28.8,2.5,42.4,7.6
		l21.2,7.6L639.4,262.9z"/>
	<path fill="#FFFFFF" d="M620.8,358.7l-43.2-1.7c-1.7,0-3.4,0.8-4.2,2.5l-11,31.4c-0.8,1.7,0.8,4.2,2.5,2.5l57.6-27.1
		C626.7,364.6,625,358.7,620.8,358.7z"/>
</g>
</svg>
