<?xml version="1.0" encoding="utf-8"?>
<!-- Generator: Adobe Illustrator 17.1.0, SVG Export Plug-In . SVG Version: 6.00 Build 0)  -->
<!DOCTYPE svg PUBLIC "-//W3C//DTD SVG 1.1//EN" "http://www.w3.org/Graphics/SVG/1.1/DTD/svg11.dtd">
<svg version="1.1" id="Layer_1" xmlns="http://www.w3.org/2000/svg" xmlns:xlink="http://www.w3.org/1999/xlink" x="0px" y="0px"
	 viewBox="0 284.1 1024 199.7" enable-background="new 0 284.1 1024 199.7" xml:space="preserve">
<path fill="#FFFFFF" d="M166.5,363.7L134,286.2c-1-2.9-4.8-2.9-6.3,0l-12.1,29.5c-19.8-7.3-42.6-6.3-62.4,1.9
	c-44,18.4-64.4,69.2-46,113.2c13.6,31.9,45,52.7,79.8,52.7c11.6,0,22.7-2.4,33.4-6.8C164.1,458.5,184.9,407.7,166.5,363.7z
	 M154.4,425.1c-7.3,17.9-21.3,31.9-39.2,39.7c-9.2,3.4-18.4,5.3-28.1,5.3c-29.5,0-55.7-17.4-67.3-44.5
	c-15.5-37.3,1.9-79.8,39.2-95.3c8.7-3.9,17.9-5.8,28.1-5.8c8.2,0,16.5,1.5,24.2,4.4l12.1,4.4l7.7-18.4l22.7,54.7
	C161.6,386.9,161.6,406.7,154.4,425.1z"/>
<path fill="#FFFFFF" d="M86.1,478.9c-10.2-7.7-17.9-18.4-23.2-30.5c-3.4-8.2-5.3-16.5-5.8-24.7c-1.5,0.5-3.4,1-5.3,1
	c0.5,8.7,2.4,17.9,6.3,26.1c5.3,12.6,13.6,23.2,23.7,31.5C82.8,480.3,84.2,479.3,86.1,478.9z"/>
<path fill="#FFFFFF" d="M61,450.3l12.1-29c1-2.4-1-5.3-3.4-5.3H34.4c-2.9,0-4.4,2.9-3.4,5.3C35.3,429.5,44.5,444,61,450.3"/>
<path fill="#FFFFFF" d="M88.6,389.3l32.9-15.5c2.4-1,1.5-4.4-1-4.4l-24.7-1c-1,0-1.9,0.5-2.4,1.5l-6.3,17.9
	C86.6,388.8,87.6,390.3,88.6,389.3z"/>
<path fill="#FFFFFF" d="M38.7,388.4l-6.3-15.5c-0.5-1.9-1-2.4-2.4-2.4l-12.6,1c-1.9,0-2.9,2.9-1,4.4l20.3,14
	C37.7,390.3,38.7,389.3,38.7,388.4z"/>
<path fill="#FFFFFF" d="M340.7,481.3h-2.9c-2.9,0-5.3-2.4-5.3-5.3v-72.6c0-17.4-2.9-30.5-8.7-39.2c-5.8-8.7-14.5-13.1-25.6-13.1
	c-5.8,0-11.6,1-16.9,3.4c-5.8,1.9-10.6,5.3-15.5,9.2c-4.8,3.9-8.7,8.7-12.6,14c-3.4,5.3-6.3,11.1-7.7,16.9v81.3
	c0,2.9-2.4,5.3-5.3,5.3h-2.9c-2.9,0-5.3-2.4-5.3-5.3V289.6c-0.5-2.9,1.9-5.3,5.3-5.3h2.4c2.9,0,5.3,2.4,5.3,5.3v84.7
	c5.8-11.1,13.6-19.8,23.7-26.1c10.2-6.3,21.3-9.7,32.9-9.7c7.7,0,14.5,1.5,19.8,4.4c5.8,2.9,10.2,6.8,14,12.6
	c3.9,5.3,6.3,12.1,8.2,19.4c1.9,7.7,2.4,16.5,2.4,25.6v75C346,478.9,343.6,481.3,340.7,481.3z"/>
<path fill="#FFFFFF" d="M443.8,483.7c-9.7,0-18.9-1.9-27.6-5.8c-8.2-3.9-15.5-9.2-21.8-16c-6.3-6.8-10.6-14.5-14.5-23.2
	c-3.4-8.7-5.3-17.9-5.3-27.6s1.9-19.4,5.3-28.1c3.4-8.7,8.2-16.5,14.5-23.2s13.6-12.1,21.8-16s17.4-5.8,27.1-5.8
	c9.7,0,18.9,1.9,27.1,5.8c8.2,3.9,15.5,9.2,21.8,16s11.1,14.5,14.5,23.2c3.4,8.7,5.3,18.4,5.3,28.1s-1.9,18.9-5.3,27.6
	c-3.4,8.7-8.2,16.5-14.5,23.2c-6.3,6.8-13.6,12.1-21.8,16C462.6,481.8,453.4,483.7,443.8,483.7z M389.1,412.1c0,8.2,1.5,16,4.4,23.2
	c2.9,7.3,6.8,13.6,11.6,18.9c4.8,5.3,10.6,9.7,17.4,12.6c6.8,3.4,13.6,4.8,21.3,4.8s14.5-1.5,21.3-4.8c6.8-2.9,12.6-7.7,17.4-13.1
	c4.8-5.8,8.7-12.1,12.1-19.4c2.9-7.3,4.4-15,4.4-23.7c0-8.2-1.5-16-4.4-23.2c-2.9-7.3-6.8-13.6-12.1-19.4
	c-4.8-5.3-10.6-9.7-17.4-13.1s-13.6-4.8-21.3-4.8c-7.3,0-14.5,1.5-20.8,4.8c-6.8,3.4-12.6,7.7-17.4,13.1
	c-4.8,5.8-9.2,12.1-12.1,19.4C390.5,395.6,389.1,403.8,389.1,412.1z"/>
<path fill="#FFFFFF" d="M138.9,328.3l7.3,17.9c18.9,21.8,24.7,52.7,13.1,81.3c-12.1,29.5-41.1,48.9-73.1,48.4l0,0
	c-10.2,0-20.3-1.9-29.5-5.8c-19.4-8.2-34.4-23.2-42.6-42.6s-8.2-40.7,0-60l24.2-38.2l14.5-2.9l3.9-1.5c19.4-7.7,40.7-7.7,60,0
	c2.4,1,4.8,1.9,7.3,3.4l2.9-7.3c-2.4-1.5-4.8-2.4-7.3-3.4c-19.8-8.2-42.1-8.7-61.9-1.5l-12.1-29.5c-1-2.9-4.8-2.9-6.3,0L7.3,363.7
	v0.5c-10.2,24.2-8.7,50.8,3.9,74c8.2,16.9,22.7,30,39.7,37.7c11.1,5.3,23.2,7.7,35.3,7.7l0,0c35.3,0,66.8-20.8,80.3-53.2
	C182,393.2,169.4,351.6,138.9,328.3z"/>
<path fill="#FFFFFF" d="M720.6,340.9c-2.4,0-4.4,1.5-5.3,3.4l0,0L663,465.8l-30-70.7l19.8-46.5c0-0.5,0.5-1.5,0.5-1.9
	c0-3.4-2.9-6.3-6.3-6.3c-2.4,0-4.4,1.5-5.3,3.4l0,0l-15.5,35.8l-15.5-35.8l0,0c-1-1.9-2.9-3.4-5.3-3.4c-3.4,0-6.3,2.9-6.3,6.3
	c0,0.5,0,1.5,0.5,1.9l19.8,46.5l-30.5,71.1l0,0l0,0l-51.8-122l0,0c-1-1.9-2.9-3.4-5.3-3.4c-3.4,0-6.3,2.9-6.3,6.3
	c0,0.5,0,1.5,0.5,1.9l55.2,128.7c1,1.9,2.9,3.4,4.8,3.4h1.5h0.5h3.9c1.9,0,4.4-1.5,4.8-3.4l29-67.3l29,67.3c1,1.9,2.9,3.4,4.8,3.4h1
	h3.4h1c1.9,0,4.4-1.5,4.8-3.4l55.7-129.2c0-0.5,0.5-1.5,0.5-1.9C726.4,343.8,724,340.9,720.6,340.9z"/>
<path fill="#FFFFFF" d="M798.5,467.7c-1,0-1.9,0-2.9,0.5l0,0c-2.4,1.5-5.3,1.9-8.2,1.9c-9.2,0-16.5-7.3-16.5-16.5v-0.5l0,0V290.6
	c0-0.5,0-0.5,0-1c0-2.9-2.4-5.3-5.3-5.3h-2.9c-2.9,0-5.3,2.4-5.3,5.3v163.1c0,0.5,0,0.5,0,1v0.5l0,0l0,0c0.5,16.5,13.6,29.5,30,29.5
	c4.8,0,8.7-1,13.1-2.9c2.9-1,4.8-3.4,4.8-6.3C805.3,470.6,802.4,467.7,798.5,467.7z"/>
<path fill="#FFFFFF" d="M957.2,467.7c-1,0-1.9,0-2.9,0.5l0,0c-2.4,1.5-5.3,1.9-8.2,1.9c-9.2,0-16.5-7.3-16.5-16.5v-0.5l0,0v-59l0,0
	v-0.5c0-17.4-4.8-31-14.5-40.7c-9.7-9.7-23.2-14.5-40.2-14.5c-14.5,0-30.5,5.3-46.9,15.5c-2.4,1.5-3.4,4.8-1.9,7.3l0,0
	c1.5,2.4,4.8,3.4,7.3,1.9c6.3-3.9,12.6-7.3,18.4-9.2c7.7-2.9,15-4.4,21.8-4.4c13.1,0,23.2,3.9,31,11.6c7.7,7.7,11.1,18.4,11.1,31.5
	v13.6c-6.3-2.4-13.1-4.4-20.8-5.3c-7.7-1.5-15.5-1.9-22.7-1.9c-8.7,0-16.5,1-23.7,2.9s-13.1,4.8-18.4,8.7
	c-5.3,3.9-9.2,8.2-12.1,13.1c-2.9,4.8-4.4,10.6-4.4,16.9c0,6.3,1,11.6,3.4,16.9c2.4,5.3,5.8,9.7,9.7,13.6c4.4,3.9,9.2,6.8,15,9.2
	c5.8,2.4,11.6,3.4,18.4,3.4c11.6,0,22.7-2.4,32.4-6.8c9.7-4.4,17.4-10.6,23.7-18.4c2.4,14.5,15,25.2,29.5,25.2c4.8,0,8.7-1,13.1-2.9
	c2.9-1,4.8-3.4,4.8-6.3C964,470.6,960.6,467.7,957.2,467.7z M916.1,440.6c0,3.4-1.5,7.3-4.4,10.6c-4.4,6.8-10.6,12.1-19.8,16
	c-8.7,3.9-18.4,5.8-29,5.8c-4.8,0-9.7-1-14-2.4c-4.4-1.9-8.2-3.9-11.6-6.8c-3.4-2.9-5.8-6.3-7.7-10.6c-1.9-4.4-2.9-8.7-2.9-13.1
	c0-9.2,4.4-16.9,13.1-22.7c8.7-5.8,19.8-8.7,33.9-8.7c14.5,0,28.6,2.4,42.1,7.7v24.2H916.1z"/>
<path fill="#FFFFFF" d="M994,352.1L994,352.1h24.7c2.9,0,5.3-2.4,5.3-5.3l0,0c0-2.9-2.4-5.3-5.3-5.3h-20.8h-4.4h-3.9v-50.8
	c0-0.5,0-0.5,0-1c0-2.9-2.4-5.3-5.3-5.3h-2.9c-2.9,0-5.3,2.4-5.3,5.3v51.3h-3.4h-2.4h-8.7c-2.9,0-5.3,2.4-5.3,5.3l0,0
	c0,2.9,2.4,5.3,5.3,5.3h10.6l0,0h3.9v100.7c0,0.5,0,0.5,0,1v0.5l0,0l0,0c0.5,16.5,13.6,29.5,30,29.5c4.8,0,8.7-1,13.1-2.9
	c2.9-1,4.8-3.4,4.8-6.3c0-3.9-2.9-6.8-6.8-6.8c-1,0-1.9,0-2.9,0.5l0,0c-2.4,1.5-5.3,1.9-8.2,1.9c-9.2,0-16.5-7.3-16.5-16.5v-0.5l0,0
	V352.1H994z"/>
</svg>
